<?xml version="1.0" encoding="utf-8"?>
<!-- Generator: Adobe Illustrator 25.2.3, SVG Export Plug-In . SVG Version: 6.00 Build 0)  -->
<svg version="1.1" id="Layer_1" xmlns="http://www.w3.org/2000/svg" xmlns:xlink="http://www.w3.org/1999/xlink" x="0px" y="0px"
	 viewBox="0 0 400 400" style="enable-background:new 0 0 400 400;" xml:space="preserve">
<style type="text/css">
	.st0{fill:#424242;}
	.st1{fill:#E82629;}
</style>
<g>
	<g>
		<path id="XMLID_311_" class="st0" d="M198.4,29v251.8c0,0,90.3-31.7,110.1-192.4L198.4,29z"/>
		<path id="XMLID_314_" class="st1" d="M181,38.4v48.9l-8.8-44.1l-14.9,8.1l8.5,144.7L140.8,60.1l-22.4,12.1l13,93.2l-21.7-88.5
			L88.4,88.4c19.8,160.7,110.1,192.4,110.1,192.4V29L181,38.4z"/>
	</g>
	<g>
		<path class="st0" d="M66.3,345.1c0,1.9,0.1,3.3,0.2,4.2c0.1,0.9,0.3,1.6,0.6,2.1c0.3,0.5,0.7,0.9,1.3,1.3c0.6,0.3,1.5,0.7,2.8,1
			v2.1H53.3v-2.1c1.8-0.5,2.9-1,3.5-1.5c0.6-0.6,1-1.3,1.2-2.4s0.3-2.6,0.3-4.7v-36.7c0-2-0.1-3.4-0.2-4.3c-0.1-0.9-0.4-1.6-0.7-2.1
			c-0.3-0.5-0.8-0.9-1.3-1.2c-0.5-0.3-1.5-0.6-2.8-1v-2.1h17.9v2.1c-1.2,0.3-2.1,0.6-2.7,0.9c-0.6,0.3-1,0.7-1.3,1.2
			c-0.3,0.5-0.6,1.2-0.7,2.1c-0.2,0.9-0.2,2.4-0.2,4.3V345.1z"/>
		<path class="st0" d="M115.6,332.8c1,1.7,1.9,3.2,2.6,4.5c0.7,1.3,1.4,2.7,2.1,4.3h0.6c-0.1-1.7-0.3-5.2-0.4-10.3
			c-0.1-5.1-0.2-9.8-0.2-13.9v-8.9c0-2-0.1-3.4-0.2-4.3c-0.1-0.9-0.3-1.6-0.6-2.1c-0.3-0.5-0.7-0.9-1.2-1.2c-0.5-0.3-1.4-0.6-2.7-1
			v-2.1h15.3v2.1c-1.3,0.3-2.2,0.7-2.7,0.9s-0.9,0.7-1.3,1.1s-0.6,1.1-0.7,2s-0.3,2.4-0.3,4.5V356h-5.3L97,316.3
			c-1.5-2.5-2.5-4.3-3.1-5.4c-0.6-1.1-1.2-2.3-1.7-3.4h-0.7c0.2,2.2,0.3,6.1,0.4,11.8s0.1,11.4,0.1,17.1v8.7c0,1.9,0.1,3.3,0.2,4.2
			c0.1,0.9,0.3,1.6,0.6,2.1c0.3,0.5,0.7,0.9,1.3,1.3s1.5,0.7,2.8,1v2.1H81.4v-2.1c1.8-0.5,2.9-1,3.5-1.5c0.6-0.6,1-1.3,1.2-2.4
			s0.3-2.6,0.3-4.7v-36.7c0-2-0.1-3.4-0.2-4.3c-0.1-0.9-0.4-1.6-0.7-2.1c-0.3-0.5-0.8-0.9-1.3-1.2c-0.5-0.3-1.5-0.6-2.8-1v-2.1h13.3
			L115.6,332.8z"/>
		<path class="st0" d="M138.4,297.8h46v14.8h-4.2c-0.6-2.4-1.2-4.4-1.8-5.8c-0.6-1.4-1.3-2.5-1.9-3.2c-0.7-0.7-1.4-1.3-2.2-1.6
			s-1.9-0.5-3.5-0.5h-5.4V345c0,1.7,0.1,3,0.3,4c0.2,1,0.5,1.8,0.8,2.4c0.4,0.6,0.9,1,1.5,1.4s1.7,0.6,3.1,1v2.1h-19.4v-2.1
			c0.8-0.2,1.6-0.4,2.3-0.6c0.7-0.2,1.2-0.5,1.6-0.8c0.4-0.3,0.8-0.7,1-1.3c0.3-0.5,0.5-1.2,0.6-2.1s0.2-2.2,0.2-3.9v-43.5H152
			c-1.3,0-2.4,0.1-3.3,0.4s-1.7,0.8-2.4,1.6c-0.7,0.8-1.4,2-2,3.4c-0.6,1.5-1.2,3.4-1.7,5.6h-4.2V297.8z"/>
		<path class="st1" d="M205.3,330.6V345c0,2,0.1,3.5,0.2,4.4c0.2,0.9,0.4,1.6,0.7,2.1c0.3,0.5,0.7,0.8,1.3,1.1
			c0.5,0.3,1.5,0.6,2.8,1v2.1h-17.9v-2.1c1.8-0.5,2.9-1,3.5-1.5c0.6-0.6,1-1.3,1.2-2.4s0.3-2.6,0.3-4.7v-36.7c0-2-0.1-3.4-0.2-4.3
			c-0.1-0.9-0.4-1.6-0.7-2.1c-0.3-0.5-0.8-0.9-1.3-1.2c-0.5-0.3-1.5-0.6-2.8-1v-2.1h21c6.6,0,11.6,1.2,14.9,3.6s4.9,6.1,4.9,11.2
			c0,3.9-1.1,7.2-3.2,9.9c-2.1,2.7-5.3,4.8-9.6,6.4v0.3c1.7,0.7,3.2,1.7,4.4,3c1.2,1.3,2.6,3.4,4.1,6.1l3.8,7c1.1,2,2.1,3.6,2.8,4.7
			s1.6,1.9,2.4,2.5c0.8,0.6,1.9,1,3.3,1.2v2.1h-11.8c-1.1-1.5-2.1-3.1-3.1-4.8s-1.9-3.5-2.8-5.3l-3.7-7.1c-1.1-2.2-2.1-3.7-2.8-4.8
			c-0.7-1-1.4-1.7-2-2.1s-1.3-0.7-2-0.8s-1.7-0.2-3.1-0.2H205.3z M205.3,301.7v25.2h4.8c2.5,0,4.5-0.2,6-0.5s2.9-1,4.2-2
			s2.3-2.4,3.1-4.1c0.8-1.8,1.2-3.9,1.2-6.5c0-2.7-0.5-4.9-1.4-6.7c-0.9-1.8-2.3-3.1-4.2-4.1s-4.4-1.4-7.6-1.4
			C208.9,301.5,206.9,301.6,205.3,301.7z"/>
		<path class="st1" d="M287.1,335.7c0,3.1-0.3,5.7-0.8,8c-0.5,2.1-1.3,4-2.4,5.7c-1,1.5-2.2,2.7-3.7,3.8c-1.5,1-3.3,1.8-5.4,2.4
			c-2.1,0.6-4.6,0.9-7.4,0.9c-3.4,0-6.4-0.4-8.8-1.1c-2.4-0.8-4.5-2-6.1-3.8c-1.6-1.7-2.8-3.8-3.5-6.2c-0.7-2.4-1.1-5.4-1.1-9v-28
			c0-2.2-0.1-3.7-0.2-4.5c-0.1-0.8-0.3-1.4-0.6-1.8c-0.3-0.5-0.7-0.8-1.2-1.2s-1.5-0.7-2.8-1v-2.1h17.8v2.1
			c-1.6,0.4-2.7,0.8-3.3,1.3c-0.6,0.5-1,1.2-1.3,2.2s-0.3,2.6-0.3,5v30.1c0,2.7,0.3,5.1,0.9,6.9c0.6,1.9,1.4,3.3,2.4,4.4
			s2.3,1.8,3.7,2.3c1.4,0.5,3.2,0.7,5.4,0.7c2,0,3.7-0.3,5.2-1c1.5-0.7,2.8-1.7,3.8-3.2c1-1.4,1.7-3.2,2.1-5.2s0.6-4.8,0.6-8.3
			v-26.5c0-2.5-0.1-4.1-0.4-5.1s-0.6-1.6-1.2-2.1c-0.6-0.5-1.7-0.9-3.4-1.4v-2.1h17v2.1c-1.6,0.4-2.8,0.9-3.4,1.4
			c-0.6,0.5-1,1.2-1.3,2.2c-0.2,1-0.3,2.6-0.3,4.9V335.7z"/>
		<path class="st1" d="M323.4,356.4c-3.4,0-6.5-0.6-9.3-1.7c-2.8-1.1-5.2-2.9-7.2-5.2c-2-2.4-3.5-5.4-4.6-9.1s-1.6-8.1-1.6-13.2
			c0-6.3,1-11.7,2.9-16.3s4.7-8,8.3-10.3s7.7-3.5,12.5-3.5c5,0,9.3,1.1,12.7,3.3c3.4,2.2,6,5.5,7.8,9.8c1.7,4.3,2.6,9.6,2.6,15.8
			c0,6.6-1,12.2-3,16.8c-2,4.6-4.8,8-8.4,10.2C332.4,355.3,328.2,356.4,323.4,356.4z M309.4,326.1c0,8.7,1.3,15.3,3.8,19.8
			c2.5,4.5,6.2,6.8,11.1,6.8c3.1,0,5.7-1,7.9-3c2.2-2,3.8-4.8,4.8-8.6c1.1-3.8,1.6-8.2,1.6-13.3c0-6.2-0.6-11.3-1.9-15.4
			c-1.3-4.1-3-7-5.2-8.9s-4.7-2.8-7.6-2.8c-2.5,0-4.7,0.6-6.6,1.8c-1.8,1.2-3.3,2.9-4.5,5.1c-1.2,2.2-2.1,4.8-2.6,8
			C309.7,318.8,309.4,322.2,309.4,326.1z"/>
	</g>
</g>
</svg>
